HIERARCHY
ROOT root
{
	OFFSET 0.000000 0.000000 0.000000
	CHANNELS 6 Xposition Yposition Zposition Zrotation Yrotation Xrotation
	JOINT lhip
	{
		OFFSET 0.058581 -0.082280 -0.017664
		CHANNELS 3 Zrotation Yrotation Xrotation
		JOINT lknee
		{
			OFFSET 0.043451 -0.386469 0.008037
			CHANNELS 3 Zrotation Yrotation Xrotation
			JOINT lankle
			{
				OFFSET -0.014790 -0.426874 -0.037428
				CHANNELS 3 Zrotation Yrotation Xrotation
				JOINT ltoe
				{
					OFFSET 0.041054 -0.060286 0.122042
					CHANNELS 3 Zrotation Yrotation Xrotation
					End Site
					{
						OFFSET 0.000000 0.000000 0.000000
					}
				}
			}
		}
	}
	JOINT rhip
	{
		OFFSET -0.060310 -0.090513 -0.013543
		CHANNELS 3 Zrotation Yrotation Xrotation
		JOINT rknee
		{
			OFFSET -0.043257 -0.383688 -0.004843
			CHANNELS 3 Zrotation Yrotation Xrotation
			JOINT rankle
			{
				OFFSET 0.019056 -0.420046 -0.034562
				CHANNELS 3 Zrotation Yrotation Xrotation
				JOINT rtoe
				{
					OFFSET -0.034840 -0.062106 0.130323
					CHANNELS 3 Zrotation Yrotation Xrotation
					End Site
					{
						OFFSET 0.000000 0.000000 0.000000
					}
				}
			}
		}
	}
	JOINT lowerback
	{
		OFFSET 0.004439 0.124404 -0.038385
		CHANNELS 3 Zrotation Yrotation Xrotation
		JOINT upperback
		{
			OFFSET 0.004488 0.137956 0.026820
			CHANNELS 3 Zrotation Yrotation Xrotation
			JOINT chest
			{
				OFFSET -0.002265 0.056032 0.002855
				CHANNELS 3 Zrotation Yrotation Xrotation
				JOINT lowerneck
				{
					OFFSET -0.013390 0.211636 -0.033468
					CHANNELS 3 Zrotation Yrotation Xrotation
					JOINT upperneck
					{
						OFFSET 0.010113 0.088937 0.050410
						CHANNELS 3 Zrotation Yrotation Xrotation
						End Site
						{
							OFFSET 0.000000 0.000000 0.000000
						}
					}
				}
				JOINT lclavicle
				{
					OFFSET 0.071702 0.114000 -0.018898
					CHANNELS 3 Zrotation Yrotation Xrotation
					JOINT lshoulder
					{
						OFFSET 0.122921 0.045205 -0.019046
						CHANNELS 3 Zrotation Yrotation Xrotation
						JOINT lelbow
						{
							OFFSET 0.255332 -0.015649 -0.022946
							CHANNELS 3 Zrotation Yrotation Xrotation
							JOINT lwrist
							{
								OFFSET 0.265709 0.012698 -0.007375
								CHANNELS 3 Zrotation Yrotation Xrotation
								End Site
								{
									OFFSET 0.000000 0.000000 0.000000
								}
							}
						}
					}
				}
				JOINT rclavicle
				{
					OFFSET -0.082954 0.112472 -0.023707
					CHANNELS 3 Zrotation Yrotation Xrotation
					JOINT rshoulder
					{
						OFFSET -0.113228 0.046853 -0.008472
						CHANNELS 3 Zrotation Yrotation Xrotation
						JOINT relbow
						{
							OFFSET -0.260127 -0.014369 -0.031269
							CHANNELS 3 Zrotation Yrotation Xrotation
							JOINT rwrist
							{
								OFFSET -0.269108 0.006794 -0.006027
								CHANNELS 3 Zrotation Yrotation Xrotation
								End Site
								{
									OFFSET 0.000000 0.000000 0.000000
								}
							}
						}
					}
				}
			}
		}
	}
}
MOTION
Frames: 17
Frame Time: 0.033333
0.549856 0.791125 0.923684 -85.060909 2.741018 92.481500 3.807451 -9.930836 -25.080850 -8.087522 -4.879272 47.154284 4.873778 10.605319 -30.926151 0.000000 -0.000000 0.000000 3.542456 5.186116 -23.848399 0.878275 -5.662323 46.399503 0.640186 -8.739530 -31.803789 0.000000 -0.000000 0.000000 -3.210627 2.137988 18.216811 1.988547 -2.139062 -4.330645 2.266242 -0.192681 1.809281 20.561190 12.790767 11.924729 16.097485 18.548529 4.485564 -24.320808 0.915441 6.607245 -62.245576 -0.176420 4.528461 13.450526 -37.325117 5.327305 -0.824569 -3.049735 -13.231853 17.440581 -0.170216 6.978116 66.566970 2.682586 9.070902 -19.872580 44.773432 4.458184 9.854047 5.002859 -16.667510 
0.552797 0.791982 0.898382 -83.094723 2.629482 92.360270 4.593576 -10.077691 -30.349426 -9.481351 -2.863596 55.607938 5.418327 9.209230 -32.788567 0.000000 -0.000000 0.000000 2.633225 4.403557 -27.787459 0.167781 -7.799966 54.541239 0.878229 -8.980486 -34.807541 0.000000 -0.000000 0.000000 -2.681138 2.033464 20.183039 1.917537 -1.973513 -5.278261 2.194857 -0.062188 1.673053 21.311164 13.241211 13.835918 15.160891 22.224847 3.912037 -25.196142 0.180689 6.812414 -61.957292 -0.138414 3.896516 14.026772 -38.102371 4.971908 -0.386015 -2.468611 -13.359066 16.926188 0.491428 7.866108 66.271996 3.287997 8.791784 -19.888716 47.390385 5.400384 10.254654 4.986035 -16.987566 
0.554786 0.793226 0.870972 -80.973874 2.540058 92.143829 5.195065 -9.933430 -35.247482 -10.895594 -1.562294 63.554172 5.165773 7.481038 -34.509681 0.000000 -0.000000 0.000000 1.796122 3.312021 -31.648593 -1.112786 -10.063185 62.973416 1.003566 -9.547719 -36.903487 0.000000 -0.000000 0.000000 -2.249403 2.129611 21.673665 1.891736 -1.655564 -5.583874 2.236977 0.103138 1.226135 21.969903 13.532527 15.908943 13.849829 26.117473 3.170396 -26.215626 -0.188009 6.814607 -62.129310 -0.045082 2.853179 15.099719 -39.031540 3.657375 0.407777 -2.262114 -13.285126 16.586725 1.442669 8.661632 65.994198 4.115671 8.505929 -20.166512 49.250454 5.555494 9.284332 4.777516 -16.301189 
0.554380 0.793626 0.844791 -78.906686 2.196118 90.967446 5.911120 -11.427455 -37.979733 -11.969538 0.476453 69.796444 5.536741 6.901796 -36.892893 0.000000 -0.000000 0.000000 0.531530 2.609501 -33.660832 -2.139469 -11.691578 70.510579 1.521897 -9.945313 -38.645018 0.000000 -0.000000 0.000000 -2.015248 2.736311 23.593874 1.761237 -1.113375 -5.500516 2.321694 0.434410 0.448598 22.594260 14.084572 18.128949 11.836079 29.905261 1.686826 -27.766168 -0.825986 7.219661 -62.097617 0.171548 2.134318 16.670926 -39.553992 1.244599 2.114874 -1.974443 -13.112062 16.954918 2.934055 9.669639 65.227464 5.147905 8.623893 -21.327175 49.946700 4.719640 7.442298 3.796724 -13.823199 
0.551503 0.794285 0.821266 -76.227704 1.821015 90.005000 5.768898 -12.228336 -40.076778 -12.950110 1.065015 74.833863 6.169496 6.476267 -39.201612 0.000000 -0.000000 0.000000 -0.198697 1.790769 -35.095093 -2.777589 -11.888568 76.908560 2.462845 -10.168361 -39.854812 0.000000 -0.000000 0.000000 -1.899068 3.459807 24.653305 1.590682 -0.403257 -5.640468 2.406362 0.837252 0.128142 22.821583 14.706588 19.918133 9.313345 33.296321 -0.090418 -29.031113 -1.010296 7.391518 -61.966409 0.469600 1.780053 16.998961 -39.838771 0.074702 4.008305 -1.822970 -13.418828 18.042859 4.111803 10.678452 64.029210 6.530711 8.830925 -21.168446 49.724296 4.501676 5.128955 3.118874 -11.286058 
0.547524 0.795370 0.805410 -72.828386 1.653140 88.975313 5.411738 -13.084660 -41.042596 -13.572494 1.235223 78.023257 6.832999 6.468345 -40.800660 0.000000 -0.000000 0.000000 -0.558058 0.956616 -34.938408 -3.712145 -12.686990 80.739204 2.944847 -11.165349 -40.822089 0.000000 -0.000000 0.000000 -1.437337 4.127734 25.617216 1.264467 0.343729 -6.009563 2.567424 1.441450 -0.233352 22.335517 15.311231 21.381797 6.511013 36.319009 -2.329664 -30.217558 -1.180133 7.796442 -61.858639 1.193320 1.222587 17.293890 -40.358139 -0.778162 5.173330 -1.097758 -13.380964 18.847582 5.831219 11.616936 63.329735 8.023941 8.964541 -20.966304 49.175796 4.318313 2.732515 2.400925 -8.128291 
0.542005 0.796437 0.801106 -69.106293 1.173237 88.333517 4.499031 -14.102415 -40.686671 -13.996036 0.436823 78.539863 7.437417 6.313809 -41.660371 0.000000 -0.000000 0.000000 -0.610242 0.014254 -33.813028 -4.615116 -13.207303 81.729449 3.379505 -13.093694 -40.979268 0.000000 -0.000000 0.000000 -1.405365 5.438729 25.401740 0.811001 1.398402 -6.201607 2.764177 1.947020 -0.093479 21.339954 16.081106 21.759595 3.737120 38.527140 -4.350139 -30.593113 -0.917104 8.117080 -61.609388 1.769224 1.107778 16.735706 -41.388523 -0.150549 6.312794 -1.480529 -13.516995 19.163145 7.419322 12.210255 62.929389 9.882546 9.507465 -20.435562 48.589946 4.537353 3.928215 2.170577 -6.116430 
0.534847 0.798192 0.813916 -64.555897 1.000917 88.171153 3.397206 -14.727966 -38.911162 -14.926596 -2.152400 76.080848 7.826095 5.740104 -40.219818 0.000000 -0.000000 0.000000 0.334163 -1.142259 -31.270342 -5.622410 -13.928229 78.613657 3.546812 -15.464823 -39.968521 0.000000 -0.000000 0.000000 -0.967085 6.933539 24.486454 0.068314 2.890726 -7.115197 2.818402 2.881202 0.352816 19.333806 17.675246 20.714187 1.695802 39.112609 -5.524069 -29.125077 -0.341343 7.830267 -61.737393 2.337143 1.544622 14.370752 -43.330055 3.573226 6.530474 -1.685254 -13.440536 18.339185 8.374390 12.148322 63.303705 10.067459 10.010995 -19.695008 49.579177 5.508469 3.914302 2.718196 -5.533094 
0.525756 0.796857 0.847051 -57.883957 0.751775 87.920377 1.781923 -15.256478 -35.219066 -15.913147 -6.313398 70.421471 7.277601 3.263245 -35.047654 0.000000 -0.000000 0.000000 0.553179 -4.047510 -26.497039 -5.824547 -15.551786 71.563828 3.620296 -16.345940 -35.388289 0.000000 -0.000000 0.000000 0.057553 8.322948 22.666869 -0.587972 3.915100 -7.573295 2.656117 3.595607 1.239481 16.325507 19.872233 17.798807 1.352772 37.770470 -5.156557 -26.970447 -0.284421 6.650903 -61.438822 2.597195 3.064124 10.521615 -44.783591 8.421726 6.525024 -3.018102 -13.634825 16.302394 7.960076 10.661363 64.036064 8.398387 10.561292 -18.053351 51.302689 5.834855 1.067070 3.264381 -7.372487 
0.515871 0.793640 0.901798 -49.223949 0.407177 87.467609 0.649419 -14.948070 -29.798627 -16.999002 -11.869424 60.858762 4.818532 -2.582070 -24.468445 0.000000 -0.000000 0.000000 -0.029634 -7.223808 -20.147305 -5.055299 -18.043600 61.162025 3.480326 -15.896366 -24.778570 0.000000 -0.000000 0.000000 0.436655 9.715000 20.100935 -0.606466 4.242222 -7.184595 2.604423 3.421482 2.197466 13.275432 22.357288 13.267160 2.466738 35.135044 -2.609624 -25.132671 -0.479416 4.978801 -61.172028 1.846415 5.870826 8.167481 -44.780690 9.970404 7.886880 -4.541458 -13.038737 14.985305 6.543811 8.099153 64.062337 5.393423 11.639547 -16.633355 51.116664 3.769989 0.324494 3.599516 -10.057949 
0.505758 0.786768 0.972941 -38.969611 0.146519 87.526249 0.920814 -13.758922 -24.206324 -16.828339 -17.867627 47.280021 -3.449835 -10.850051 -5.006554 0.000000 -0.000000 0.000000 -0.431500 -10.059602 -13.784874 -4.586639 -20.535458 47.882011 3.505051 -14.034227 -6.757457 0.000000 -0.000000 0.000000 -0.200928 10.587915 15.606588 0.200279 3.254251 -4.281108 2.868312 3.015299 1.985718 9.492748 24.520561 10.033396 3.562682 32.347118 -1.180632 -23.903872 -0.862923 4.048471 -61.976902 0.244147 8.428148 8.577893 -44.194011 9.224532 7.816141 -5.981355 -12.121205 15.337026 3.954434 6.356261 63.038072 3.007745 11.580877 -16.273938 49.709994 3.578893 2.199782 3.740482 -8.957045 
0.500120 0.776765 1.049197 -28.421084 -0.422134 87.547281 0.604349 -11.445811 -18.509878 -12.326892 -20.407817 29.582855 -19.635408 -11.649951 21.354456 0.000000 -0.000000 0.000000 -0.162313 -10.477207 -8.310976 -5.962265 -22.617341 33.770018 5.383159 -13.098478 17.465689 0.000000 -0.000000 0.000000 -0.836565 10.154989 11.833799 0.374292 1.936347 -1.367932 2.925422 2.539257 1.418887 4.879591 25.513193 6.609236 5.482406 30.308202 0.188575 -22.985790 -1.151964 3.390040 -63.047977 -0.765807 10.821802 10.428687 -44.323513 5.855142 7.291885 -7.507343 -10.599576 15.892884 1.842242 5.257297 62.356366 0.080591 12.183471 -16.299607 48.954369 1.958846 3.742557 2.835890 -9.074162 
0.499501 0.766221 1.117022 -17.342588 -0.588629 87.851459 -0.723561 -9.078359 -14.760254 -7.199158 -16.590225 19.561375 -17.730769 -5.895600 20.370024 0.000000 -0.000000 0.000000 1.179098 -8.389079 -4.474468 -5.276798 -19.056470 21.406720 7.234375 -13.130499 34.028883 0.000000 -0.000000 0.000000 -0.762671 7.622509 9.858534 -0.071516 0.169412 -2.406996 3.559068 2.162937 1.309998 2.655324 23.134503 8.827163 5.837239 34.116941 -0.377306 -23.429235 -0.575481 5.148893 -62.742618 -1.458945 9.345805 8.469322 -45.848507 6.478075 5.970829 -8.333494 -10.682695 14.984810 0.338992 7.879716 62.971818 -1.674480 11.483515 -17.014484 48.801413 0.764286 4.201591 3.265781 -10.346459 
0.502464 0.760404 1.168756 -6.227337 -0.857964 88.897868 -0.797507 -7.899215 -13.659594 -6.096809 -11.675900 16.222710 -14.423340 -3.963462 14.122168 0.000000 -0.000000 0.000000 1.959359 -4.809811 -3.863527 -2.537678 -9.341091 15.987505 9.714577 -9.615457 32.941783 0.000000 -0.000000 0.000000 -0.928572 5.660194 6.184304 0.417755 -0.965664 -0.761627 2.409737 0.978604 2.467536 -2.898040 16.513950 -0.293989 3.205603 24.059314 -2.547250 -23.903997 0.207648 2.926017 -61.286269 -3.247557 11.326302 6.783522 -45.471413 7.483881 3.891505 -9.263291 -9.867992 17.004832 -2.130192 5.793748 60.426684 -4.103759 12.880482 -17.291557 48.869837 -1.052870 3.887784 3.906218 -10.097087 
0.505503 0.754883 1.205975 5.519239 -0.501225 87.890806 -0.501271 -5.872398 -11.913938 -5.584930 -7.153803 17.731916 -11.802073 -1.410283 13.015186 0.000000 -0.000000 0.000000 2.312538 -3.594016 -3.550519 -0.654853 -6.258489 16.647962 10.868775 -7.457637 29.020288 0.000000 -0.000000 0.000000 -0.550178 3.743832 6.158239 0.857583 -2.384457 -0.184804 1.820697 -0.073622 2.231334 -3.029119 17.251105 -0.429022 3.019062 24.341700 -1.704395 -24.464359 -0.691455 1.846016 -60.497603 -4.337591 12.288630 6.454309 -44.584086 7.980313 2.382596 -9.449458 -8.638467 17.668102 -4.030831 4.915938 59.286865 -6.161368 12.996941 -17.464430 48.397169 -1.522714 6.423262 3.718314 -10.663845 
0.510223 0.752231 1.234910 15.967794 -0.149839 87.083845 -0.267906 -5.564726 -10.846162 -4.828668 -6.622587 20.770215 -8.436481 1.890624 12.217195 0.000000 -0.000000 0.000000 2.113650 -3.251873 -3.887405 0.586575 -3.926842 17.655646 11.582510 -4.895382 27.672200 0.000000 -0.000000 0.000000 -0.128800 2.119852 7.214998 0.817551 -3.482242 -2.355793 1.679371 -0.654212 3.427429 -3.192509 17.034964 -0.970408 3.731325 24.569051 -0.191580 -25.194545 -1.120035 0.920764 -59.769812 -5.370392 12.666698 6.138264 -43.356071 7.228918 3.840454 -9.283352 -7.549656 17.580547 -4.922663 4.441174 59.024051 -7.631619 12.622300 -16.567818 46.492120 -1.453880 4.850248 3.376964 -9.106694 
0.511327 0.750805 1.254513 24.830149 -0.226060 87.088627 0.443827 -5.774783 -9.793444 -4.812457 -7.182030 21.658221 -5.362247 3.735936 13.092390 0.000000 -0.000000 0.000000 1.174680 -3.039509 -5.744824 0.925853 -5.033421 19.070634 10.886813 -6.411961 26.449096 0.000000 -0.000000 0.000000 -1.017490 1.446864 6.588109 0.936649 -3.708967 -1.841859 1.701642 -1.258175 3.383840 -2.983374 16.771150 -1.534071 4.062936 23.651745 0.427978 -25.114748 -1.295914 1.384551 -58.997073 -7.046140 12.742506 6.878948 -43.189973 5.287996 5.753903 -8.427202 -8.463698 18.483103 -5.278298 4.793121 58.099708 -7.833986 12.764967 -15.962948 44.615990 -1.792704 3.889485 3.303007 -8.465295 
